<svg width="633" height="629" viewBox="0 0 633 629" fill="none" xmlns="http://www.w3.org/2000/svg">
<path d="M317 25C317 11.1929 328.193 0 342 0H450C463.807 0 475 11.1929 475 25V133C475 146.807 463.807 158 450 158H342C328.193 158 317 146.807 317 133V25Z" fill="#6E00FF"/>
<path d="M316 25C316 11.1929 327.193 0 341 0H449C462.807 0 474 11.1929 474 25V133C474 146.807 462.807 158 449 158H341C327.193 158 316 146.807 316 133V25Z" fill="#6E00FF"/>
<path d="M0 341C0 327.193 11.1929 316 25 316H133C146.807 316 158 327.193 158 341V449C158 462.807 146.807 474 133 474H25C11.1929 474 0 462.807 0 449V341Z" fill="#AF73FF"/>
<path d="M158 496C158 482.193 169.193 471 183 471H291C304.807 471 316 482.193 316 496V604C316 617.807 304.807 629 291 629H183C169.193 629 158 617.807 158 604V496Z" fill="white"/>
<path d="M157 180C157 166.193 168.193 155 182 155H290C303.807 155 315 166.193 315 180V288C315 301.807 303.807 313 290 313H182C168.193 313 157 301.807 157 288V180Z" fill="white"/>
<path d="M475 183C475 169.193 486.193 158 500 158H608C621.807 158 633 169.193 633 183V291C633 304.807 621.807 316 608 316H500C486.193 316 475 304.807 475 291V183Z" fill="#6E00FF" fill-opacity="0.33"/>
<path d="M317 341C317 327.193 328.193 316 342 316H450C463.807 316 475 327.193 475 341V449C475 462.807 463.807 474 450 474H342C328.193 474 317 462.807 317 449V341Z" fill="#6E00FF"/>
<circle cx="396" cy="239" r="74" fill="#FF3FF7"/>
<circle cx="237" cy="390" r="74" fill="#3FFFFF"/>
</svg>
