<svg width="125" height="125" viewBox="0 0 125 125" fill="none" xmlns="http://www.w3.org/2000/svg">
<path d="M52.0834 109.375H20.8334C15.0804 109.375 10.4167 104.711 10.4167 98.9583V46.875C10.4167 41.122 15.0804 36.4583 20.8334 36.4583H26.0417V26.0417C26.0417 20.2887 30.7054 15.625 36.4584 15.625H104.167C109.92 15.625 114.583 20.2887 114.583 26.0417V83.3333C114.583 89.0863 109.92 93.75 104.167 93.75H62.5V98.9583C62.5 104.711 57.8363 109.375 52.0834 109.375ZM20.8334 46.875V98.9583H52.0834V46.875H20.8334ZM36.4584 36.4583H52.0834C57.8363 36.4583 62.5 41.122 62.5 46.875V83.3333H104.167V26.0417H36.4584V36.4583Z" fill="#A109FF"/>
</svg>
